# xmcd
#
# Track frame offsets:
#	150
#	24572
#	38867
#	55613
#	73976
#	102113
#	116289
#	135098
#	159270
#	191362
#	209793
#	229897
#	247143
#	263815
#	279106
#	295879
#
# Disc length: 4344 seconds
#
# Revision: 0
# Processed by: cddbd v1.5.1PL0 Copyright (c) Steve Scherf et al.
# Submitted via: dBpowerAMP V4.0
#
DISCID=e010f610
DTITLE=Vengaboys - Up and Down (the Party Album)
DYEAR=1998
DGENRE=Eurodance
TTITLE0=We Like To Party
TTITLE1=Boom, Boom, Boom
TTITLE2=Ho Ho Vengaboys
TTITLE3=Up and Down
TTITLE4=We' re Going To Ibiza
TTITLE5=Parada De Tettas
TTITLE6=To Brazil ( Medium Radio )
TTITLE7=Movin' Around
TTITLE8=Overwhelm Yourself
TTITLE9=You And Me
TTITLE10=The Vengabeat
TTITLE11=Paradise . . .
TTITLE12=Superfly Slick Dick
TTITLE13=All Night Passion
TTITLE14=24 Hours
TTITLE15=To The Rhythm
EXTD=
EXTT0=
EXTT1=
EXTT2=
EXTT3=
EXTT4=
EXTT5=
EXTT6=
EXTT7=
EXTT8=
EXTT9=
EXTT10=
EXTT11=
EXTT12=
EXTT13=
EXTT14=
EXTT15=
PLAYORDER=
